<svg xmlns="http://www.w3.org/2000/svg" xmlns:xlink="http://www.w3.org/1999/xlink" viewBox="0 0 500 43.9"><defs><style>.cls-1{fill:none;}.cls-2,.cls-3{fill:#fff;}.cls-3{opacity:0.6;}.cls-4{fill:#ec1c24;}.cls-5{clip-path:url(#clip-path);}.cls-6{opacity:0.7;isolation:isolate;}.cls-7{clip-path:url(#clip-path-2);}.cls-8{clip-path:url(#clip-path-3);}.cls-9{clip-path:url(#clip-path-5);}.cls-10{clip-path:url(#clip-path-6);}</style><clipPath id="clip-path"><rect class="cls-1" width="500" height="43.89"/></clipPath><clipPath id="clip-path-2"><rect class="cls-1" x="27.1" y="9.5" width="5.7" height="18.32"/></clipPath><clipPath id="clip-path-3"><rect class="cls-1" x="27.3" y="9.6" width="5.3" height="18.03"/></clipPath><clipPath id="clip-path-5"><rect class="cls-1" x="11.1" y="9.5" width="5.7" height="18.32"/></clipPath><clipPath id="clip-path-6"><rect class="cls-1" x="11.3" y="9.6" width="5.4" height="18.06"/></clipPath></defs><g id="Layer_2" data-name="Layer 2"><g id="Layer_1-2" data-name="Layer 1"><path class="cls-2" d="M90.7,37.5V18.7c0-4.3-2.7-5.7-5.2-5.7s-5.2,1.4-5.2,5.5v19H72.6V18.7c0-4.3-2.7-5.7-5.2-5.7s-5.2,1.4-5.2,5.7V37.5H54.4V6.4H62V9.2A11,11,0,0,1,69.8,6a9.8,9.8,0,0,1,8.3,4,11.6,11.6,0,0,1,9.3-4A10.4,10.4,0,0,1,95,8.8a11.7,11.7,0,0,1,3.4,8.8V37.5Z"/><path class="cls-2" d="M120.4,37.5V34.8c-2.1,2.1-4.1,3-7.7,3s-6.1-.9-7.9-2.7a10.1,10.1,0,0,1-2.6-7c0-5,3.4-9.1,10.6-9.1h7.4V17.5c0-3.4-1.7-4.9-5.8-4.9s-4.4.7-6,2.5l-5-4.8C106.5,7,109.5,6,114.7,6c8.7,0,13.2,3.7,13.2,11V37.5Zm-.2-13.2H114c-2.8,0-4.3,1.4-4.3,3.6s1.4,3.6,4.4,3.6,3.6-.2,4.9-1.5,1.2-2.1,1.2-4Z"/><path class="cls-2" d="M152,37.5V18.7c0-4.3-2.7-5.7-5.1-5.7s-5.2,1.4-5.2,5.7V37.5h-7.8V6.4h7.6V9.2A10.8,10.8,0,0,1,149.3,6a9.7,9.7,0,0,1,7.3,2.8c2.5,2.5,3.2,5.4,3.2,8.8V37.5Z"/><path class="cls-2" d="M186.1,34a12.7,12.7,0,0,1-9.7,3.9,12.5,12.5,0,0,1-9.6-3.9c-2.8-2.9-3.5-6.4-3.5-12.1s.7-9.1,3.5-12.1A12.8,12.8,0,0,1,176.4,6a13,13,0,0,1,9.7,3.8c2.8,3,3.5,6.5,3.5,12.1s-.7,9.2-3.5,12.1M180,14.4a4.9,4.9,0,0,0-3.6-1.4,4.7,4.7,0,0,0-3.6,1.4c-1.6,1.6-1.8,4.3-1.8,7.5s.2,6,1.8,7.6a4.7,4.7,0,0,0,3.6,1.4,4.9,4.9,0,0,0,3.6-1.4c1.7-1.6,1.8-4.4,1.8-7.6s-.1-5.9-1.8-7.5"/><path class="cls-2" d="M210.3,14.9a5.2,5.2,0,0,0-4.1-1.9c-2.4,0-5,1.8-5,5.7V37.5h-7.8V6.4H201V9.3A10.9,10.9,0,0,1,208.8,6a9.6,9.6,0,0,1,7.4,2.9Z"/><path class="cls-2" d="M235.4,37.5V34.8c-2.1,2.1-4.1,3-7.7,3s-6.1-.9-7.9-2.7a10.1,10.1,0,0,1-2.6-7c0-5,3.4-9.1,10.6-9.1h7.4V17.5c0-3.4-1.7-4.9-5.8-4.9s-4.4.7-6,2.5l-4.9-4.8c3-3.3,6-4.3,11.2-4.3C238.4,6,243,9.7,243,17V37.5Zm-.2-13.2H229c-2.8,0-4.3,1.4-4.3,3.6s1.4,3.6,4.4,3.6,3.6-.2,4.9-1.5,1.2-2.1,1.2-4Z"/><path class="cls-2" d="M283.9,37.5V18.7c0-4.3-2.7-5.7-5.1-5.7s-5.2,1.4-5.2,5.5v19h-7.8V18.7c0-4.3-2.7-5.7-5.1-5.7s-5.2,1.4-5.2,5.7V37.5h-7.8V6.4h7.6V9.2A11,11,0,0,1,263.1,6a9.6,9.6,0,0,1,8.2,4,11.9,11.9,0,0,1,9.3-4,10.5,10.5,0,0,1,7.7,2.8,11.7,11.7,0,0,1,3.4,8.8V37.5Z"/><path class="cls-2" d="M313.6,37.5V34.8c-2.1,2.1-4,3-7.6,3s-6.1-.9-8-2.7a10.5,10.5,0,0,1-2.5-7c0-5,3.4-9.1,10.6-9.1h7.3V17.5c0-3.4-1.6-4.9-5.7-4.9s-4.4.7-6,2.5l-5-4.8C299.8,7,302.8,6,308,6c8.7,0,13.2,3.7,13.2,11V37.5Zm-.2-13.2h-6.1c-2.8,0-4.4,1.4-4.4,3.6s1.5,3.6,4.5,3.6,3.5-.2,4.9-1.5,1.1-2.1,1.1-4Z"/><path class="cls-3" d="M345.2,5.4C335.4,5.4,328,12.5,328,22s7.4,16.6,17.2,16.6,17.2-7.1,17.2-16.6S355,5.4,345.2,5.4m0,27.3A10.5,10.5,0,0,1,334.5,22a10.7,10.7,0,1,1,21.3,0,10.4,10.4,0,0,1-10.6,10.7"/><polygon class="cls-3" points="386.9 26.6 370.1 6.2 369.9 6 365.6 6 365.6 38.1 371.9 38.1 371.9 17.5 388.7 37.9 388.9 38.1 393.2 38.1 393.2 6 386.9 6 386.9 26.6"/><polygon class="cls-3" points="405 6 398.5 6 398.5 38.1 418.9 38.1 418.9 32.4 405 32.4 405 6"/><polygon class="cls-3" points="423.5 11.4 428.5 11.4 428.5 32.6 423.5 32.6 423.5 38.1 439.9 38.1 439.9 32.6 434.9 32.6 434.9 11.4 439.9 11.4 439.9 6 423.5 6 423.5 11.4"/><polygon class="cls-3" points="466 26.6 449.2 6.2 449.1 6 444.8 6 444.8 38.1 451.1 38.1 451.1 17.5 467.8 37.9 468 38.1 472.3 38.1 472.3 6 466 6 466 26.6"/><polygon class="cls-3" points="500 11.6 500 6 477.7 6 477.7 38.1 500 38.1 500 32.4 484.1 32.4 484.1 24.6 496.5 24.6 496.5 19.2 484.1 19.2 484.1 11.6 500 11.6"/><path class="cls-4" d="M0,7.8V36a7.8,7.8,0,0,0,7.8,7.9H36A7.9,7.9,0,0,0,43.9,36V7.8A7.9,7.9,0,0,0,36,0H7.8A7.8,7.8,0,0,0,0,7.8"/><rect class="cls-2" x="11.3" y="29.9" width="21.4" height="4"/><rect class="cls-1" width="500" height="43.89"/><g class="cls-5"><g class="cls-6"><g class="cls-7"><g class="cls-8"><polygon class="cls-2" points="32.6 9.6 27.3 18.6 32.6 27.6 32.6 9.6"/></g></g></g><polygon class="cls-2" points="32.6 9.6 25.6 9.6 22 15.7 18.4 9.6 11.3 9.6 16.6 18.6 22 27.6 27.3 18.7 27.3 18.7 32.6 9.6 32.6 9.6"/></g><g class="cls-5"><g class="cls-6"><g class="cls-9"><g class="cls-10"><polygon class="cls-2" points="11.3 9.6 11.3 27.7 16.6 18.6 11.3 9.6"/></g></g></g></g></g></g></svg>